<svg width="77" height="27" viewBox="0 0 77 27" fill="none" xmlns="http://www.w3.org/2000/svg">
<path d="M0 16.4713C0 14.8303 1.33028 13.5 2.97126 13.5C4.61225 13.5 5.94253 14.8303 5.94253 16.4713V19.4425H2.97126C1.33028 19.4425 0 18.1122 0 16.4713Z" fill="#414141"/>
<path d="M5.94256 4.5865V1.61523H3.05176e-05V4.5865C3.05176e-05 9.50945 3.99087 13.5003 8.91382 13.5003H11.8851V7.55776H8.91382C7.27284 7.55776 5.94256 6.22748 5.94256 4.5865Z" fill="#414141"/>
<path d="M8.9138 19.4422H5.94254L5.94254 25.3848H8.9138C13.8368 25.3848 17.8276 21.3939 17.8276 16.471V13.4997L11.8851 13.4997L11.8851 16.471C11.8851 18.112 10.5548 19.4422 8.9138 19.4422Z" fill="#414141"/>
<path d="M11.885 1.61523H14.8563C16.4973 1.61523 17.8276 2.94552 17.8276 4.5865V7.55776H11.885V1.61523Z" fill="#414141"/>
<path d="M30.8692 5.28703C30.8079 5.07412 30.7219 4.886 30.6111 4.72267C30.5003 4.55643 30.3646 4.41643 30.2042 4.30269C30.0467 4.18603 29.8659 4.09707 29.6617 4.03582C29.4605 3.97457 29.2374 3.94395 28.9924 3.94395C28.5345 3.94395 28.132 4.0577 27.7849 4.28519C27.4408 4.51268 27.1724 4.84371 26.9799 5.27828C26.7875 5.70993 26.6912 6.23783 26.6912 6.86198C26.6912 7.48613 26.786 8.01694 26.9756 8.45443C27.1652 8.89192 27.4335 9.22586 27.7805 9.45627C28.1276 9.68376 28.5374 9.79751 29.0099 9.79751C29.4386 9.79751 29.8046 9.72168 30.108 9.57002C30.4142 9.41544 30.6475 9.19816 30.808 8.91816C30.9713 8.63817 31.0529 8.30714 31.0529 7.92507L31.4379 7.98194H29.128V6.55574H32.8773V7.68445C32.8773 8.47193 32.711 9.14857 32.3785 9.71439C32.046 10.2773 31.5881 10.7119 31.0048 11.0181C30.4215 11.3214 29.7536 11.4731 29.0011 11.4731C28.1612 11.4731 27.4233 11.2879 26.7875 10.9175C26.1516 10.5442 25.6558 10.0148 25.3 9.3294C24.9471 8.64109 24.7706 7.82445 24.7706 6.87948C24.7706 6.15325 24.8756 5.50577 25.0856 4.93704C25.2985 4.36539 25.596 3.88124 25.9781 3.48459C26.3602 3.08794 26.805 2.78607 27.3124 2.57899C27.8199 2.37192 28.3697 2.26838 28.9618 2.26838C29.4692 2.26838 29.9417 2.34275 30.3792 2.4915C30.8167 2.63732 31.2046 2.8444 31.5429 3.11273C31.8842 3.38105 32.1627 3.70042 32.3785 4.07082C32.5944 4.43831 32.7329 4.84371 32.7941 5.28703H30.8692ZM37.3276 11.4818C36.6364 11.4818 36.0414 11.3418 35.5426 11.0618C35.0468 10.7789 34.6648 10.3794 34.3964 9.86313C34.1281 9.34398 33.9939 8.73005 33.9939 8.02132C33.9939 7.33009 34.1281 6.72344 34.3964 6.20138C34.6648 5.67931 35.0424 5.27245 35.5295 4.98079C36.0195 4.68913 36.5941 4.54331 37.2532 4.54331C37.6965 4.54331 38.1092 4.61476 38.4913 4.75767C38.8763 4.89767 39.2117 5.10912 39.4975 5.39203C39.7863 5.67494 40.0108 6.03076 40.1712 6.45949C40.3317 6.88531 40.4119 7.38405 40.4119 7.9557V8.46755H34.7377V7.31259H38.6575C38.6575 7.04427 38.5992 6.80657 38.4825 6.59949C38.3659 6.39241 38.204 6.23054 37.9969 6.11388C37.7928 5.9943 37.5551 5.93451 37.2838 5.93451C37.0009 5.93451 36.7501 6.00013 36.5314 6.13138C36.3155 6.25971 36.1464 6.43324 36.0239 6.65199C35.9014 6.86781 35.8387 7.10843 35.8358 7.37384V8.47193C35.8358 8.80442 35.897 9.0917 36.0195 9.33378C36.1449 9.57585 36.3214 9.76251 36.5489 9.89376C36.7764 10.025 37.0461 10.0906 37.3582 10.0906C37.5653 10.0906 37.7549 10.0615 37.9269 10.0031C38.099 9.9448 38.2463 9.8573 38.3688 9.74064C38.4913 9.62397 38.5846 9.48106 38.6488 9.3119L40.3725 9.42565C40.285 9.8398 40.1056 10.2015 39.8344 10.5106C39.5661 10.8169 39.219 11.056 38.7932 11.2281C38.3703 11.3973 37.8817 11.4818 37.3276 11.4818ZM44.6642 11.4818C43.9847 11.4818 43.397 11.3375 42.9012 11.0487C42.4083 10.7571 42.0276 10.3517 41.7593 9.83251C41.491 9.31044 41.3568 8.70525 41.3568 8.01694C41.3568 7.3228 41.491 6.71615 41.7593 6.197C42.0276 5.67494 42.4083 5.26953 42.9012 4.98079C43.397 4.68913 43.9847 4.54331 44.6642 4.54331C45.3438 4.54331 45.93 4.68913 46.4229 4.98079C46.9187 5.26953 47.3008 5.67494 47.5691 6.197C47.8375 6.71615 47.9716 7.3228 47.9716 8.01694C47.9716 8.70525 47.8375 9.31044 47.5691 9.83251C47.3008 10.3517 46.9187 10.7571 46.4229 11.0487C45.93 11.3375 45.3438 11.4818 44.6642 11.4818ZM44.673 10.0381C44.9821 10.0381 45.2402 9.95063 45.4473 9.77564C45.6544 9.59773 45.8104 9.35565 45.9154 9.04941C46.0233 8.74317 46.0773 8.39464 46.0773 8.00382C46.0773 7.613 46.0233 7.26447 45.9154 6.95823C45.8104 6.65199 45.6544 6.40991 45.4473 6.232C45.2402 6.05409 44.9821 5.96513 44.673 5.96513C44.3609 5.96513 44.0984 6.05409 43.8855 6.232C43.6755 6.40991 43.5166 6.65199 43.4086 6.95823C43.3036 7.26447 43.2511 7.613 43.2511 8.00382C43.2511 8.39464 43.3036 8.74317 43.4086 9.04941C43.5166 9.35565 43.6755 9.59773 43.8855 9.77564C44.0984 9.95063 44.3609 10.0381 44.673 10.0381ZM49.1835 11.3506V4.6308H50.9596V5.81639H51.0384C51.1784 5.42265 51.4117 5.11204 51.7384 4.88454C52.065 4.65705 52.4558 4.54331 52.9108 4.54331C53.3716 4.54331 53.7639 4.65851 54.0877 4.88892C54.4114 5.11641 54.6272 5.42557 54.7351 5.81639H54.8051C54.9422 5.4314 55.1901 5.1237 55.5489 4.89329C55.9105 4.65997 56.3378 4.54331 56.8307 4.54331C57.4578 4.54331 57.9667 4.74309 58.3575 5.14266C58.7513 5.53931 58.9481 6.10221 58.9481 6.83136V11.3506H57.0888V7.19884C57.0888 6.82552 56.9897 6.54553 56.7913 6.35887C56.593 6.17221 56.3451 6.07888 56.0476 6.07888C55.7093 6.07888 55.4453 6.18679 55.2558 6.40262C55.0662 6.61553 54.9714 6.89698 54.9714 7.24697V11.3506H53.1646V7.15947C53.1646 6.8299 53.0698 6.56741 52.8802 6.372C52.6935 6.17659 52.4471 6.07888 52.1409 6.07888C51.9338 6.07888 51.7471 6.13138 51.5809 6.23638C51.4175 6.33846 51.2878 6.48283 51.1915 6.66949C51.0953 6.85323 51.0471 7.06906 51.0471 7.31697V11.3506H49.1835ZM29.7886 17.9677C29.7536 17.6148 29.6034 17.3406 29.338 17.1452C29.0726 16.9498 28.7124 16.8521 28.2574 16.8521C27.9483 16.8521 27.6872 16.8958 27.4743 16.9833C27.2614 17.0679 27.0981 17.186 26.9843 17.3377C26.8735 17.4893 26.8181 17.6614 26.8181 17.8539C26.8122 18.0143 26.8458 18.1543 26.9187 18.2739C26.9945 18.3935 27.0981 18.497 27.2293 18.5845C27.3606 18.6691 27.5122 18.7435 27.6843 18.8076C27.8564 18.8689 28.0401 18.9214 28.2355 18.9651L29.0405 19.1576C29.4313 19.2451 29.7901 19.3618 30.1167 19.5076C30.4434 19.6534 30.7263 19.8328 30.9654 20.0457C31.2046 20.2586 31.3898 20.5095 31.5211 20.7982C31.6552 21.0869 31.7238 21.418 31.7267 21.7913C31.7238 22.3396 31.5838 22.815 31.3067 23.2175C31.0325 23.6171 30.6359 23.9277 30.1167 24.1493C29.6005 24.3681 28.9778 24.4775 28.2487 24.4775C27.5253 24.4775 26.8954 24.3666 26.3587 24.145C25.825 23.9233 25.4079 23.5952 25.1075 23.1606C24.81 22.7231 24.654 22.1821 24.6394 21.5376H26.4725C26.4929 21.838 26.5789 22.0888 26.7306 22.29C26.8852 22.4884 27.0908 22.6386 27.3474 22.7406C27.607 22.8398 27.9001 22.8894 28.2268 22.8894C28.5476 22.8894 28.8261 22.8427 29.0624 22.7494C29.3015 22.6561 29.4867 22.5263 29.618 22.36C29.7492 22.1938 29.8149 22.0027 29.8149 21.7869C29.8149 21.5857 29.7551 21.4165 29.6355 21.2794C29.5188 21.1424 29.3467 21.0257 29.1193 20.9294C28.8947 20.8332 28.6191 20.7457 28.2924 20.667L27.3168 20.422C26.5614 20.2382 25.965 19.9509 25.5275 19.5601C25.09 19.1693 24.8727 18.6429 24.8756 17.9808C24.8727 17.4383 25.0171 16.9644 25.3088 16.559C25.6033 16.1536 26.0073 15.8371 26.5206 15.6096C27.0339 15.3821 27.6172 15.2684 28.2705 15.2684C28.9355 15.2684 29.5159 15.3821 30.0117 15.6096C30.5105 15.8371 30.8984 16.1536 31.1754 16.559C31.4525 16.9644 31.5954 17.4339 31.6042 17.9677H29.7886ZM36.0282 24.4818C35.337 24.4818 34.742 24.3418 34.2433 24.0618C33.7475 23.7789 33.3654 23.3794 33.0971 22.8631C32.8288 22.344 32.6946 21.73 32.6946 21.0213C32.6946 20.3301 32.8288 19.7234 33.0971 19.2014C33.3654 18.6793 33.7431 18.2724 34.2302 17.9808C34.7202 17.6891 35.2947 17.5433 35.9539 17.5433C36.3972 17.5433 36.8099 17.6148 37.192 17.7577C37.5769 17.8977 37.9124 18.1091 38.1982 18.392C38.4869 18.6749 38.7115 19.0308 38.8719 19.4595C39.0323 19.8853 39.1125 20.384 39.1125 20.9557V21.4676H33.4383V20.3126H37.3582C37.3582 20.0443 37.2999 19.8066 37.1832 19.5995C37.0665 19.3924 36.9047 19.2305 36.6976 19.1139C36.4934 18.9943 36.2557 18.9345 35.9845 18.9345C35.7016 18.9345 35.4508 19.0001 35.232 19.1314C35.0162 19.2597 34.847 19.4332 34.7245 19.652C34.602 19.8678 34.5393 20.1084 34.5364 20.3738V21.4719C34.5364 21.8044 34.5977 22.0917 34.7202 22.3338C34.8456 22.5759 35.022 22.7625 35.2495 22.8938C35.477 23.025 35.7468 23.0906 36.0589 23.0906C36.266 23.0906 36.4555 23.0615 36.6276 23.0031C36.7997 22.9448 36.947 22.8573 37.0695 22.7406C37.192 22.624 37.2853 22.4811 37.3495 22.3119L39.0732 22.4256C38.9857 22.8398 38.8063 23.2015 38.535 23.5106C38.2667 23.8169 37.9196 24.056 37.4938 24.2281C37.0709 24.3973 36.5824 24.4818 36.0282 24.4818ZM40.3287 24.3506V17.6308H42.1356V18.8033H42.2056C42.328 18.3862 42.5337 18.0712 42.8224 17.8583C43.1111 17.6425 43.4436 17.5346 43.8199 17.5346C43.9132 17.5346 44.0138 17.5404 44.1217 17.5521C44.2297 17.5637 44.3244 17.5798 44.4061 17.6002V19.2539C44.3186 19.2276 44.1976 19.2043 44.043 19.1839C43.8884 19.1635 43.747 19.1533 43.6186 19.1533C43.3445 19.1533 43.0995 19.213 42.8837 19.3326C42.6707 19.4493 42.5016 19.6126 42.3762 19.8226C42.2537 20.0326 42.1924 20.2747 42.1924 20.5488V24.3506H40.3287ZM51.839 17.6308L49.4897 24.3506H47.3898L45.0405 17.6308H47.0091L48.4047 22.4388H48.4747L49.8659 17.6308H51.839ZM52.7927 24.3506V17.6308H54.6564V24.3506H52.7927ZM53.7289 16.7646C53.4519 16.7646 53.2142 16.6727 53.0158 16.489C52.8204 16.3023 52.7227 16.0792 52.7227 15.8196C52.7227 15.563 52.8204 15.3428 53.0158 15.159C53.2142 14.9723 53.4519 14.879 53.7289 14.879C54.006 14.879 54.2422 14.9723 54.4377 15.159C54.636 15.3428 54.7351 15.563 54.7351 15.8196C54.7351 16.0792 54.636 16.3023 54.4377 16.489C54.2422 16.6727 54.006 16.7646 53.7289 16.7646ZM59.1855 24.4818C58.4972 24.4818 57.9051 24.336 57.4093 24.0443C56.9164 23.7498 56.5372 23.3415 56.2718 22.8194C56.0093 22.2973 55.8781 21.6965 55.8781 21.0169C55.8781 20.3286 56.0108 19.7249 56.2762 19.2058C56.5445 18.6837 56.9251 18.2768 57.418 17.9852C57.9109 17.6906 58.4972 17.5433 59.1767 17.5433C59.763 17.5433 60.2763 17.6498 60.7167 17.8627C61.1571 18.0756 61.5056 18.3745 61.7623 18.7595C62.0189 19.1445 62.1604 19.5966 62.1866 20.1157H60.4279C60.3784 19.7803 60.2471 19.5105 60.0342 19.3064C59.8242 19.0993 59.5486 18.9958 59.2073 18.9958C58.9186 18.9958 58.6663 19.0745 58.4505 19.232C58.2376 19.3866 58.0713 19.6126 57.9518 19.9101C57.8322 20.2076 57.7724 20.5678 57.7724 20.9907C57.7724 21.4194 57.8307 21.784 57.9474 22.0844C58.067 22.3848 58.2347 22.6138 58.4505 22.7713C58.6663 22.9288 58.9186 23.0075 59.2073 23.0075C59.4203 23.0075 59.6113 22.9638 59.7805 22.8763C59.9525 22.7888 60.094 22.6619 60.2048 22.4956C60.3186 22.3265 60.3929 22.1238 60.4279 21.8875H62.1866C62.1575 22.4009 62.0175 22.8529 61.7666 23.2437C61.5187 23.6317 61.176 23.935 60.7385 24.1537C60.3011 24.3725 59.7834 24.4818 59.1855 24.4818ZM66.4423 24.4818C65.751 24.4818 65.1561 24.3418 64.6573 24.0618C64.1615 23.7789 63.7794 23.3794 63.5111 22.8631C63.2428 22.344 63.1086 21.73 63.1086 21.0213C63.1086 20.3301 63.2428 19.7234 63.5111 19.2014C63.7794 18.6793 64.1571 18.2724 64.6442 17.9808C65.1342 17.6891 65.7088 17.5433 66.3679 17.5433C66.8112 17.5433 67.2239 17.6148 67.606 17.7577C67.991 17.8977 68.3264 18.1091 68.6122 18.392C68.9009 18.6749 69.1255 19.0308 69.2859 19.4595C69.4463 19.8853 69.5265 20.384 69.5265 20.9557V21.4676H63.8524V20.3126H67.7722C67.7722 20.0443 67.7139 19.8066 67.5972 19.5995C67.4806 19.3924 67.3187 19.2305 67.1116 19.1139C66.9075 18.9943 66.6698 18.9345 66.3985 18.9345C66.1156 18.9345 65.8648 19.0001 65.646 19.1314C65.4302 19.2597 65.2611 19.4332 65.1386 19.652C65.0161 19.8678 64.9534 20.1084 64.9504 20.3738V21.4719C64.9504 21.8044 65.0117 22.0917 65.1342 22.3338C65.2596 22.5759 65.4361 22.7625 65.6635 22.8938C65.891 23.025 66.1608 23.0906 66.4729 23.0906C66.68 23.0906 66.8695 23.0615 67.0416 23.0031C67.2137 22.9448 67.361 22.8573 67.4835 22.7406C67.606 22.624 67.6993 22.4811 67.7635 22.3119L69.4872 22.4256C69.3997 22.8398 69.2203 23.2015 68.9491 23.5106C68.6807 23.8169 68.3337 24.056 67.9078 24.2281C67.4849 24.3973 66.9964 24.4818 66.4423 24.4818ZM76.3338 19.547L74.6276 19.652C74.5985 19.5062 74.5358 19.3749 74.4395 19.2582C74.3433 19.1387 74.2164 19.0439 74.0589 18.9739C73.9043 18.901 73.7191 18.8645 73.5033 18.8645C73.2146 18.8645 72.971 18.9258 72.7727 19.0483C72.5744 19.1678 72.4752 19.3282 72.4752 19.5295C72.4752 19.6899 72.5394 19.8255 72.6677 19.9364C72.796 20.0472 73.0162 20.1361 73.3283 20.2032L74.5445 20.4482C75.1978 20.5824 75.6849 20.7982 76.0057 21.0957C76.3265 21.3932 76.4869 21.784 76.4869 22.2682C76.4869 22.7086 76.3572 23.095 76.0976 23.4275C75.8409 23.76 75.488 24.0196 75.0389 24.2062C74.5926 24.39 74.0779 24.4818 73.4945 24.4818C72.605 24.4818 71.8963 24.2966 71.3684 23.9262C70.8434 23.5529 70.5357 23.0454 70.4453 22.4038L72.2783 22.3075C72.3337 22.5788 72.4679 22.7858 72.6808 22.9288C72.8937 23.0688 73.1664 23.1388 73.4989 23.1388C73.8256 23.1388 74.0881 23.076 74.2864 22.9506C74.4876 22.8223 74.5897 22.6575 74.5926 22.4563C74.5897 22.2871 74.5183 22.1486 74.3783 22.0407C74.2383 21.9298 74.0224 21.8452 73.7308 21.7869L72.5671 21.5551C71.9108 21.4238 71.4223 21.1963 71.1015 20.8726C70.7836 20.5488 70.6246 20.1361 70.6246 19.6345C70.6246 19.2028 70.7413 18.831 70.9746 18.5189C71.2109 18.2068 71.5419 17.9662 71.9677 17.797C72.3965 17.6279 72.8981 17.5433 73.4727 17.5433C74.3214 17.5433 74.9893 17.7227 75.4764 18.0814C75.9663 18.4402 76.2522 18.9287 76.3338 19.547Z" fill="#414141"/>
</svg>
